# xmcd
#
# Track frame offsets: 
#        150
#        20236
#        83280
#        103341
#        118043
#        138592
#        153770
#        169449
#        186458
#        200686
#        211536
#        225772
#        243673
#        252663
#        278788
#        299856
#        316127
#
# Disc length: 4401 seconds
#
# Revision: 1
# Processed by: cddbd v1.5.2PL0 Copyright (c) Steve Scherf et al.
# Submitted via: ExactAudioCopy v0.99pb4
#
DISCID=fd112f11
DTITLE=Various Artist - Comes With A Smile Volume 13 - Every Minute A
DTITLE=Mystery
DYEAR=2005
DGENRE=Indie
TTITLE0=Jens Lekman - No Time For Breaking Up
TTITLE1=Comets On Fire with Burning Star Core - Street Wars
TTITLE2=Art Of Fighting - Along The Run (demo)
TTITLE3=The Eighteenth Day Of May - Sir Casey Jones
TTITLE4=Dolorean - Holding On (live)
TTITLE5=Mark Mulcahy - Part Of The Show
TTITLE6=M Ward - One More Goodbye
TTITLE7=The Heavy Blinkers - Gentle Strength (remix)
TTITLE8=Brendan Benson - Between Us (uncensored version)
TTITLE9=Cass McCombs - Tourist Woman (demo)
TTITLE10=Camper Van Beethoven - Alien Ghost Song
TTITLE11=Archer Prewitt - We Go Alone
TTITLE12=Lou Barlow - A Man In Love (live)
TTITLE13=Ken Stringfellow - Reveal Love (live)
TTITLE14=Jeff Parker - Sea Change (Vicissitude version)
TTITLE15=Michaelmas - What League Am I In?
TTITLE16=Low - Walk Into The Sea (acoustic version)
EXTD=
EXTT0=
EXTT1=
EXTT2=
EXTT3=
EXTT4=
EXTT5=
EXTT6=
EXTT7=
EXTT8=
EXTT9=
EXTT10=
EXTT11=
EXTT12=
EXTT13=
EXTT14=
EXTT15=
EXTT16=
PLAYORDER=
